<svg height="60.225" viewBox="0 0 61.529 60.225" width="61.529" xmlns="http://www.w3.org/2000/svg"><g fill="#001029"><path d="m457.624 251.813h-3.031a1.193 1.193 0 0 0 -.948.473l-1.828 2.393a1.244 1.244 0 0 0 .208 1.722 1.185 1.185 0 0 0 1.687-.213l1.467-1.92h2.444a1.227 1.227 0 0 0 0-2.454zm0 0" transform="translate(-397.297 -220.917)"/><path d="m50.537 90.5a1.185 1.185 0 0 0 -1.687.213l-1.69 2.212h-5.26l-4.2-14.7a3.329 3.329 0 0 0 -1.156-6.425h-.683l-.871-3.047a1.2 1.2 0 0 0 -1.49-.834 1.231 1.231 0 0 0 -.817 1.521l.675 2.359h-.641l-4.465-4.35c.095-.061.189-.124.281-.19a5.923 5.923 0 0 0 2.377-3.849 6.007 6.007 0 0 0 -.988-4.44 5.775 5.775 0 0 0 -3.774-2.427 5.847 5.847 0 0 0 -6.725 4.862 6.024 6.024 0 0 0 1.584 5.163 6.173 6.173 0 0 0 -.942.558 4.175 4.175 0 0 0 -3.011-2.368 3.983 3.983 0 0 0 -3.069.7 4.27 4.27 0 0 0 -1.716 2.8 4.425 4.425 0 0 0 .17 2.123 1.179 1.179 0 0 0 -.169.1 1.23 1.23 0 0 0 -.5.8l-1.689 9.9a3.249 3.249 0 0 0 2.506 3.793l2.024.37a3 3 0 0 0 .543.05 2.961 2.961 0 0 0 .4-.03l-.375 5.872-2.917 6.142a4.3 4.3 0 0 0 -.023 3.647h-1.4a1.185 1.185 0 0 0 -.646.193l-9.646 6.28a1.242 1.242 0 0 0 -.367 1.694 1.2 1.2 0 0 0 1.014.567 1.179 1.179 0 0 0 .645-.193l9.351-6.088h4.576c.078 0 .156.007.234.007s.129 0 .193-.007h12.823a1.189 1.189 0 0 0 .828-.337l8-7.756h9.908a1.193 1.193 0 0 0 .947-.473l2.051-2.684a1.245 1.245 0 0 0 -.208-1.723zm-30.065-4.512a4.618 4.618 0 0 1 -1.4-.344 1.993 1.993 0 0 1 -.989-2.093c.038-.232.078-.465.117-.7a14.792 14.792 0 0 0 7.547-2.234l-.284 1.683a1.235 1.235 0 0 0 .663 1.312l4.278 2.1 4.971 6.407a1.828 1.828 0 0 1 -.287 2.529 1.741 1.741 0 0 1 -2.477-.293l-4.3-5.537a1.2 1.2 0 0 0 -.42-.344l-3.618-1.774a1.183 1.183 0 0 0 -.319-.1zm16.786 4.612-5.143-6.629a1.212 1.212 0 0 0 -.422-.344l-3.709-1.827.563-3.363h6.708l4.145 14.489h-1.25a4.277 4.277 0 0 0 -.888-2.325zm-5.022-16.342h4.308a.865.865 0 0 1 0 1.73h-8.564l-2.43-2.138a1.185 1.185 0 0 0 -1.7.129 1.245 1.245 0 0 0 .126 1.73l1.9 1.672c-.951 1.008-3.121 2.67-7.269 2.988l.442-2.638.835-4.984s0-.007 0-.01l.247-1.478c.24-1.432 1.436-2.935 4.069-2.935h.184.03a2.889 2.889 0 0 1 2.085.817l.047.046 4.853 4.729a1.189 1.189 0 0 0 .83.339zm-10.445-12.44a3.45 3.45 0 0 1 3.373-2.907 3.353 3.353 0 0 1 .579.05 3.393 3.393 0 0 1 2.217 1.425 3.529 3.529 0 0 1 .581 2.614 3.449 3.449 0 0 1 -3.373 2.9 3.353 3.353 0 0 1 -.579-.05 3.493 3.493 0 0 1 -2.8-4.035zm-7.151 6.846a1.827 1.827 0 0 1 .73-1.2 1.63 1.63 0 0 1 1.259-.287 1.85 1.85 0 0 1 1.426 2.146 1.828 1.828 0 0 1 -.73 1.2 1.635 1.635 0 0 1 -1.259.288 1.851 1.851 0 0 1 -1.426-2.146zm.4 14.26-2.024-.371a.8.8 0 0 1 -.563-.957l1.481-8.683 3.383.62-.57 3.408-.909 5.425a.743.743 0 0 1 -.8.558zm.206 17.924a1.793 1.793 0 0 1 -.994-1.622 1.813 1.813 0 0 1 .177-.782l3.018-6.357a1.234 1.234 0 0 0 .118-.455l.248-3.888a8.779 8.779 0 0 0 3 .795l.572.1-.27 3.979-3.512 7.4a1.763 1.763 0 0 1 -1.453 1.007h-.273a1.73 1.73 0 0 1 -.63-.173zm13.289.173h-8.735l3.584-7.548a1.247 1.247 0 0 0 .118-.451l.261-3.851 2.843 1.4 4.125 5.316a4.145 4.145 0 0 0 1.741 1.313zm0 0" transform="translate(0 -49.53)"/><path d="m348 49.3h6.149a4.713 4.713 0 0 0 0-9.423 4.538 4.538 0 0 0 -1.779.364 5.473 5.473 0 0 0 -4.369-2.2 5.577 5.577 0 0 0 -5.512 5.628 5.651 5.651 0 0 0 1.614 3.979 5.419 5.419 0 0 0 3.897 1.652zm0-8.8a3.108 3.108 0 0 1 2.852 1.91 1.209 1.209 0 0 0 .827.706 1.185 1.185 0 0 0 1.048-.255 2.155 2.155 0 0 1 1.421-.528 2.258 2.258 0 0 1 0 4.515h-6.148a3.057 3.057 0 0 1 -2.2-.93 3.185 3.185 0 0 1 -.91-2.244 3.145 3.145 0 0 1 3.11-3.174zm0 0" transform="translate(-301.327 -33.379)"/><path d="m28.33 40.486a4.482 4.482 0 0 0 0-8.962 4.313 4.313 0 0 0 -3.1 1.312 4.5 4.5 0 0 0 -1.289 3.164 4.441 4.441 0 0 0 4.389 4.486zm-1.4-5.914a1.952 1.952 0 0 1 1.4-.594 2.027 2.027 0 1 1 -1.985 2.022 2.033 2.033 0 0 1 .582-1.433zm0 0" transform="translate(-21.064 -27.656)"/><path d="m.6 31.42.564.332a1.177 1.177 0 0 0 .6.165 1.2 1.2 0 0 0 1.043-.617 1.241 1.241 0 0 0 -.44-1.676l-.567-.324a1.188 1.188 0 0 0 -1.642.449 1.242 1.242 0 0 0 .442 1.671zm0 0" transform="translate(0 -25.556)"/><path d="m98.6 85.186-.564-.332a1.188 1.188 0 0 0 -1.642.449 1.241 1.241 0 0 0 .44 1.676l.564.332a1.176 1.176 0 0 0 .6.165 1.2 1.2 0 0 0 1.042-.614 1.241 1.241 0 0 0 -.44-1.676zm0 0" transform="translate(-84.665 -74.298)"/><path d="m1.2 87.476a1.177 1.177 0 0 0 .6-.165l.563-.332a1.241 1.241 0 0 0 .44-1.676 1.188 1.188 0 0 0 -1.642-.449l-.561.332a1.242 1.242 0 0 0 -.44 1.676 1.2 1.2 0 0 0 1.042.614zm0 0" transform="translate(0 -74.298)"/><path d="m97.432 31.918a1.18 1.18 0 0 0 .6-.164l.564-.333a1.241 1.241 0 0 0 .44-1.676 1.189 1.189 0 0 0 -1.642-.449l-.564.332a1.242 1.242 0 0 0 -.44 1.677 1.2 1.2 0 0 0 1.042.613zm0 0" transform="translate(-84.664 -25.557)"/><path d="m51.663 3.152a1.214 1.214 0 0 0 1.2-1.227v-.7a1.2 1.2 0 1 0 -2.4 0v.7a1.214 1.214 0 0 0 1.2 1.227zm0 0" transform="translate(-44.397)"/><path d="m50.461 112.551v.7a1.2 1.2 0 1 0 2.4 0v-.7a1.2 1.2 0 1 0 -2.4 0zm0 0" transform="translate(-44.397 -97.665)"/><path d="m429.338 301.446a1.193 1.193 0 0 0 -2.265.132 1.253 1.253 0 0 0 .454 1.334 1.194 1.194 0 0 0 1.367.023 1.251 1.251 0 0 0 .444-1.489zm0 0" transform="translate(-375.711 -263.796)"/></g></svg>