<svg xmlns="http://www.w3.org/2000/svg" width="28.114" height="28.114" viewBox="0 0 28.114 28.114"><defs><style>.a{fill:#0099d7;}</style></defs><path class="a" d="M8.275,28.114A8.268,8.268,0,0,1,2.381,25.9,8.154,8.154,0,0,1,0,19.838V8.218C0,3.288,3.288,0,8.218,0H19.9a8.072,8.072,0,0,1,5.951,2.324,8.125,8.125,0,0,1,2.267,5.894V19.9A8.114,8.114,0,0,1,25.79,25.9a8.37,8.37,0,0,1-5.951,2.21ZM4.138,4.081A5.646,5.646,0,0,0,2.607,8.218v11.62a5.693,5.693,0,0,0,1.531,4.194,5.854,5.854,0,0,0,4.137,1.474H19.838a5.86,5.86,0,0,0,4.138-1.474A5.537,5.537,0,0,0,25.62,19.9V8.218a5.844,5.844,0,0,0-1.531-4.08,5.646,5.646,0,0,0-4.137-1.531H8.275A5.759,5.759,0,0,0,4.138,4.081Zm3,9.916a6.915,6.915,0,1,1,6.915,6.915A6.929,6.929,0,0,1,7.142,14Zm2.486,0a4.43,4.43,0,1,0,4.429-4.43A4.45,4.45,0,0,0,9.628,14ZM19.819,6.624a1.726,1.726,0,1,1,1.726,1.727A1.726,1.726,0,0,1,19.819,6.624Z"/></svg>