<svg height="59.728" viewBox="0 0 46.523 59.728" width="46.523" xmlns="http://www.w3.org/2000/svg"><g fill="#001029" transform="translate(-56.598)"><path d="m97.076 39.079c3.911-5.249 6-10.938 6.044-16.453a21.632 21.632 0 0 0 -6.674-15.711 23.35 23.35 0 0 0 -33.171 0 21.63 21.63 0 0 0 -6.675 15.711c.043 5.515 2.133 11.2 6.044 16.453a77.631 77.631 0 0 0 8.723 9.1h-6.838a5.776 5.776 0 1 0 0 11.552h30.661a5.776 5.776 0 1 0 0-11.552h-6.836a77.646 77.646 0 0 0 8.722-9.1zm-1.886 11.43a3.443 3.443 0 1 1 0 6.886h-30.661a3.443 3.443 0 1 1 0-6.886h9.385q2.07 1.869 4.47 3.958c.316.276.591.515.656.574a1.167 1.167 0 0 0 1.639 0c.065-.06.339-.3.656-.574q2.4-2.089 4.47-3.958zm-15.33 2.149c-7.919-6.9-13.082-11.934-15.346-14.972-7.569-10.159-7.413-21.317.414-29.126a21.017 21.017 0 0 1 29.863 0l.005.005c7.822 7.8 7.978 18.962.409 29.12-2.264 3.039-7.426 8.076-15.345 14.973z"/><path d="m134.045 60.9a16.071 16.071 0 1 0 16.105 16.07 16.106 16.106 0 0 0 -16.105-16.07zm0 29.808a13.737 13.737 0 1 1 13.772-13.737 13.771 13.771 0 0 1 -13.772 13.74z" transform="translate(-54.186 -53.798)"/><path d="m216.926 131.667a1.167 1.167 0 0 0 -1.167 1.167v5.254h-6.869v-5.254a1.167 1.167 0 0 0 -2.333 0v13.3a1.167 1.167 0 1 0 2.333 0v-5.71h6.869v5.71a1.167 1.167 0 1 0 2.333 0v-13.3a1.167 1.167 0 0 0 -1.166-1.167z" transform="translate(-132.465 -116.307)"/></g></svg>