<svg xmlns="http://www.w3.org/2000/svg" width="21.764" height="28.114" viewBox="0 0 21.764 28.114"><defs><style>.a{fill:#0099d7;}</style></defs><path class="a" d="M21.478,4.622c-7.672,0-11.541,5.5-11.541,10.088,0,2.777,1.052,5.248,3.306,6.168a.555.555,0,0,0,.809-.4c.075-.282.251-1,.33-1.3a.784.784,0,0,0-.233-.9,4.654,4.654,0,0,1-1.066-3.166,7.648,7.648,0,0,1,7.951-7.734c4.337,0,6.719,2.65,6.719,6.188,0,4.657-2.061,8.587-5.119,8.587a2.5,2.5,0,0,1-2.549-3.111C20.57,17,21.51,14.789,21.51,13.311a2.162,2.162,0,0,0-2.178-2.424c-1.727,0-3.114,1.787-3.114,4.18a6.213,6.213,0,0,0,.515,2.555s-1.767,7.488-2.077,8.8a18.114,18.114,0,0,0-.048,6.136.215.215,0,0,0,.384.094,17.239,17.239,0,0,0,2.915-5.285c.2-.718,1.136-4.438,1.136-4.438a4.628,4.628,0,0,0,3.945,2.012c5.19,0,8.713-4.732,8.713-11.066C31.7,9.083,27.644,4.622,21.478,4.622Z" transform="translate(-9.937 -4.622)"/></svg>