<svg height="69.119" viewBox="0 0 68.878 69.119" width="68.878" xmlns="http://www.w3.org/2000/svg"><g fill="#001029"><path d="m246.4 8.783a1.36 1.36 0 0 0 1.36-1.36v-6.063a1.36 1.36 0 1 0 -2.719 0v6.063a1.36 1.36 0 0 0 1.359 1.36z" transform="translate(-212.077)"/><path d="m68.445 117.77-2.4-2.4a4.553 4.553 0 0 0 -5.387-.769l-4.526-4.521.22-.22a4.719 4.719 0 0 0 0-6.663 4.667 4.667 0 0 0 -2.367-1.28 4.748 4.748 0 0 0 .188-1.323 4.708 4.708 0 0 0 -3.745-4.611 4.747 4.747 0 0 0 .188-1.323 4.7 4.7 0 0 0 -3.745-4.609 4.7 4.7 0 0 0 -5.029-6l-8.969-1.7c-1.368-.259-3.076-.431-4.154.552a2.457 2.457 0 0 0 -.206.213 4.728 4.728 0 0 0 -4.961 1.091 4.677 4.677 0 0 0 -1.377 3.333 4.754 4.754 0 0 0 .187 1.323 4.709 4.709 0 0 0 -3.744 4.606 4.74 4.74 0 0 0 .182 1.331 4.714 4.714 0 0 0 -2.922 7.275 4.711 4.711 0 0 0 -1.81 7.794l.22.219-4.526 4.518a4.546 4.546 0 0 0 -5.143.891l-2.4 2.4a4.542 4.542 0 0 0 0 6.414l3 3a1.36 1.36 0 0 0 1.922-1.924l-3-3a1.823 1.823 0 0 1 0-2.565l2.4-2.4a1.82 1.82 0 0 1 2.217-.272 1.37 1.37 0 0 0 .171.209 1.353 1.353 0 0 0 .391.272l13.782 13.762a1.339 1.339 0 0 0 .655.662 1.82 1.82 0 0 1 -.075 2.482l-2.4 2.4a1.826 1.826 0 0 1 -2.571 0l-3-3a1.36 1.36 0 0 0 -1.923 1.923l3 3a4.552 4.552 0 0 0 6.411 0l2.4-2.4a4.546 4.546 0 0 0 .637-5.615l5.094-5.088.016-.017c.583-.6 2.208-.49 3.779-.381a19.555 19.555 0 0 0 3.576.024l5.579 5.572a4.544 4.544 0 0 0 .771 5.382l2.4 2.4a4.546 4.546 0 0 0 6.413 0l14.572-14.554a4.541 4.541 0 0 0 0-6.414zm-36.079-32.744 5.9 1.116-3.53 3.529a8.571 8.571 0 0 1 -2.116-1.537 6.255 6.255 0 0 1 -2-3.091 1.188 1.188 0 0 1 -.006-.134 4.607 4.607 0 0 1 1.755.119zm-6.893 1.108a2.005 2.005 0 0 1 2.537-.24 9.725 9.725 0 0 0 2.728 4.2 10.069 10.069 0 0 0 3.917 2.427 2 2 0 0 1 -3.05 2.548l-6.131-6.12a2 2 0 0 1 0-2.818zm-3.553 5.934a2.005 2.005 0 0 1 2.825 0l4.938 4.932a2 2 0 0 1 -2.828 2.823l-3.746-3.745-.018-.017-1.172-1.171a2 2 0 0 1 0-2.819zm-3.559 5.932a2.011 2.011 0 0 1 2.816-.009l3.757 3.755a2 2 0 0 1 -2.828 2.817l-1.362-1.36-2.382-2.379a2 2 0 0 1 0-2.822zm-2.368 7.126a2.01 2.01 0 0 1 2.829 0l1.364 1.362a2 2 0 0 1 -2.829 2.815l-.171-.17-.006-.007-.008-.007-1.178-1.174a2 2 0 0 1 0-2.82zm27.707 15.451a1.359 1.359 0 0 0 -1.923 0l-1.21 1.208c-1.149 1.149-3.232 1-5.246.865-2.187-.152-4.449-.309-5.912 1.194l-5.008 5-12.523-12.5 4.432-4.424a4.715 4.715 0 0 0 7.177-4.021c0-.012 0-.023 0-.035h.035a4.7 4.7 0 0 0 4.713-4.708c0-.012 0-.023 0-.035h.036a4.7 4.7 0 0 0 4.713-4.744h.036a4.716 4.716 0 0 0 4.024-7.168l3.884-3.883a1.994 1.994 0 0 1 1.02-.544c.04 0 .08-.011.12-.019a1.992 1.992 0 0 1 1.692 3.381l-1.183 1.178-.012.011-1.365 1.361a1.36 1.36 0 0 0 1.921 1.924l1.188-1.186.18-.179a2 2 0 0 1 2.821.007 2 2 0 0 1 0 2.818l-1.19 1.192-1.362 1.357a1.36 1.36 0 0 0 1.919 1.927l1.369-1.363a2 2 0 0 1 2.824 2.82l-2.37 2.372a1.359 1.359 0 1 0 1.92 1.917l1.162-1.163.02-.018a2 2 0 0 1 2.825 2.819l-1.182 1.181-1.878 1.881a1.36 1.36 0 0 0 1.922 1.924l.918-.917 4.4 4.393-12.524 12.506-4.483-4.481a5.345 5.345 0 0 0 .893-.719l1.207-1.206a1.359 1.359 0 0 0 0-1.923zm22.825 1.684-14.572 14.554a1.827 1.827 0 0 1 -2.57 0l-2.4-2.4a1.818 1.818 0 0 1 0-2.562l14.569-14.553a1.827 1.827 0 0 1 2.571 0l2.4 2.4a1.823 1.823 0 0 1 0 2.566z" transform="translate(-.894 -71.063)"/><path d="m87.077 10.011a1.36 1.36 0 0 0 1.923-1.925l-4.957-4.944a1.36 1.36 0 1 0 -1.921 1.925z" transform="translate(-70.811 -2.374)"/><path d="m373.011 10.409a1.356 1.356 0 0 0 .961-.4l4.95-4.944a1.36 1.36 0 1 0 -1.922-1.922l-4.95 4.944a1.359 1.359 0 0 0 .961 2.321z" transform="translate(-321.6 -2.375)"/><path d="m60.32 430.6a1.36 1.36 0 0 0 .016 1.923 1.36 1.36 0 1 0 -.02-1.926z" transform="translate(-51.96 -372.118)"/><path d="m333.872 334.838a1.36 1.36 0 1 0 -.611-2.574h-.008a1.359 1.359 0 0 0 .618 2.57z" transform="translate(-287.742 -287.282)"/></g></svg>