<svg xmlns="http://www.w3.org/2000/svg" width="28.114" height="22.847" viewBox="0 0 28.114 22.847"><defs><style>.a{fill:#0099d7;}</style></defs><path class="a" d="M31.688,13.031a11.477,11.477,0,0,1-3.313.908,5.778,5.778,0,0,0,2.536-3.191,11.546,11.546,0,0,1-3.663,1.4,5.773,5.773,0,0,0-9.828,5.261A16.377,16.377,0,0,1,5.531,11.382a5.775,5.775,0,0,0,1.785,7.7A5.751,5.751,0,0,1,4.7,18.361c0,.024,0,.049,0,.073a5.772,5.772,0,0,0,4.627,5.656,5.8,5.8,0,0,1-1.52.2,5.715,5.715,0,0,1-1.085-.1,5.774,5.774,0,0,0,5.388,4.006,11.639,11.639,0,0,1-8.539,2.388,16.322,16.322,0,0,0,8.842,2.592c10.61,0,16.411-8.789,16.411-16.411q0-.375-.016-.747A11.682,11.682,0,0,0,31.688,13.031Z" transform="translate(-3.574 -10.326)"/></svg>