<svg xmlns="http://www.w3.org/2000/svg" width="38.751" height="26.641" viewBox="0 0 38.751 26.641"><defs><style>.a{fill:#0099d7;}</style></defs><g transform="translate(-107 -100)"><g transform="translate(107 20)"><path class="a" d="M37.1,82.567c-1.051-1.87-2.192-2.214-4.514-2.344C30.269,80.065,24.435,80,19.38,80s-10.9.065-13.219.22c-2.318.133-3.461.475-4.522,2.347C.557,84.435,0,87.651,0,93.313v.019c0,5.638.557,8.879,1.64,10.727,1.061,1.87,2.2,2.209,4.519,2.366,2.32.136,8.157.216,13.221.216s10.889-.08,13.212-.213c2.323-.157,3.463-.5,4.514-2.366,1.092-1.848,1.644-5.088,1.644-10.727v-.019C38.751,87.651,38.2,84.435,37.1,82.567ZM14.532,100.586V86.055l12.11,7.266Z"/></g></g></svg>